<svg version="1.1" id="Ebene_1" xmlns="http://www.w3.org/2000/svg" xmlns:xlink="http://www.w3.org/1999/xlink" x="0px" y="0px" viewBox="0 0 2000 600" style="enable-background:new 0 0 2000 600;" xml:space="preserve" width="2000"  height="600" >
<style type="text/css">
	.st0{fill:#F39400;}
	.st1{fill:#2F5FAA;}
	.st2{fill:#7489C4;}
</style>
<g>
	<path class="st0" d="M116.8,294.7c0,22.2-14.7,32.5-45.9,32.5c-5.6,0-8.7,0-21.5-0.3V265h20.9c16.5,0,26.8,1.2,32.1,4.4   C111.5,274.1,116.8,283.4,116.8,294.7 M105.9,205.7c0,8.4-2.8,14.7-8.4,19.7c-6.2,5.3-12.8,6.9-28.7,6.9H49.4V182   c13.4-0.3,16.2-0.3,19.7-0.3C95.9,181.7,105.9,188.2,105.9,205.7 M161.4,295.9c0-27.5-15.3-43.7-47.4-49.9   c23.1-7.5,34.3-21.5,34.3-43.7c0-18.4-6.2-32.1-18.7-41.5c-12.8-9.7-30.9-13.1-69-13.1c-8.1,0-16.5,0.3-23.4,0.6l-25,0.9H7.5v210.4   h5.6c37.8,1.6,37.8,1.6,48.7,1.6c34.3,0,51.8-2.8,67.7-10.9C149.6,340.3,161.4,320,161.4,295.9 M377.1,360.6l-79.3-134.2l64.9-78   h-47.1L246,233.5v-85.2h-44v212.3h44v-71.5l24.7-30.3l58.7,101.8H377.1z M497,226.3l64.9-78h-47.1l-69.6,85.2v-85.2h-44v212.3h44   v-71.5l24.7-30.3l58.7,101.8h47.8L497,226.3z"/>
	<path class="st1" d="M797.8,208.8h-27.8v151.7h27.8V208.8z M747,160.8l8.7-20.9c-10.6-5-19-7.2-30.9-7.2   c-34.3,0-51.8,17.8-51.8,52.4v23.7h-25.9v21.2H673v130.5h27.8V230.1h43.7v-21.2h-43.7v-21.2c0-23.4,7.8-33.7,25.6-33.7   C733.5,153.9,740.7,156.4,747,160.8 M769.1,180.1h29.7v-31.8h-29.7V180.1z M914,233.5l7.5-24.7c-5-2.8-10.6-4.1-16.9-4.1   c-20.9,0-36.8,15.6-41.2,40.9c-0.6-20.6-0.6-22.5-1.3-36.8h-25v3.7c0.6,19.7,0.9,30,0.9,38.4v109.6h27.8v-68.4   c0-38.1,13.7-63.7,34.3-63.7C905.8,228.5,910.2,230.1,914,233.5 M1123.4,360.6h27.8V259.7c0-37.1-14.7-54.9-44.6-54.9   c-24.3,0-40.9,12.2-48.1,35.9c-4.1-23.4-19-35.9-43.1-35.9c-25.9,0-41.8,13.1-49.3,40.3c-0.3-10-0.6-22.2-0.9-36.2h-25   c0.6,12.8,0.9,26.5,0.9,30v121.7h27.8v-68c0-38.4,17.2-66.5,40.3-66.5c16.2,0,23.1,11.2,23.1,37.5v97.1h27.8v-68   c0-38.4,17.2-66.5,40.3-66.5c16.2,0,23.1,11.2,23.1,37.5V360.6z M1291.3,360.6h23.4c-0.9-11.6-1.9-38.1-1.9-52.8v-99h-27.8v54.9   c0,23.7-2.8,42.1-8.1,54c-7.2,16.2-20.3,25.6-35,25.6c-9.1,0-16.9-4.1-20.6-10.3c-3.1-5.9-4.4-13.4-4.4-27.2v-97.1h-27.5v100.8   c0,19.3,2.2,28.7,8.4,37.5c7.8,11.5,20.9,17.5,37.5,17.5c19,0,34-7.5,44-21.2c3.4-5.3,4.7-8.1,9.1-19.4   C1289.4,340.9,1289.7,343.4,1291.3,360.6 M1429.9,237.9l10-20.3c-13.4-8.7-26.8-12.8-43.1-12.8c-33.1,0-53.4,15.6-53.4,41.2   c0,18.1,8.1,28.1,32.5,39c24,11.2,26.2,12.2,31.8,16.5c7.8,5.9,10.6,10.9,10.6,19c0,14-11.2,23.4-28.4,23.4   c-12.5,0-25.9-5.6-39-15.9l-10.3,20.3c15.9,11.2,30.3,16.2,48.4,16.2c35,0,56.5-17.5,56.5-45.6c0-22.5-10.6-34.3-43.4-47.8   c-28.4-11.9-33.1-15.3-33.1-26.2c0-12.2,11.2-20.3,27.8-20.3C1408,224.8,1419.3,229.4,1429.9,237.9"/>
	<path class="st0" d="M1742.6,446c-64,0-128-24.4-176.7-73.1l12.9-12.9c90.3,90.3,237.3,90.3,327.7,0c43.8-43.8,67.9-102,67.9-163.8   s-24.1-120.1-67.9-163.8l12.9-12.9c47.2,47.2,73.2,110,73.2,176.7s-26,129.5-73.2,176.7C1870.5,421.6,1806.5,446,1742.6,446z"/>
	<path class="st0" d="M1888.8,143.8c0-3.4-0.3-6.8-0.5-10.1c8.3,19.2,12.9,40.3,12.9,62.6c0,87.6-71,158.6-158.6,158.6   c-23.9,0-46.5-5.4-66.8-14.9c5.3,0.4,10.6,0.8,16,0.8C1800.6,340.7,1888.8,252.5,1888.8,143.8 M1935.2,196.2   c0-106.4-86.3-192.6-192.7-192.6c-106.4,0-192.7,86.3-192.7,192.6s86.3,192.6,192.7,192.6C1848.9,388.9,1935.2,302.6,1935.2,196.2"/>
	<path class="st2" d="M1526.1,559.4h17.6v-18h-17.6V559.4z M1529.1,526.9h12l3-79.6h-18L1529.1,526.9z M1469.4,455.4v23.9h-13.8   v11.2h13.7l-0.3,45c0,7.1,0.7,12.4,2.3,16c3.1,6.6,9.9,10,19.8,10c7.2,0,12.2-1.3,18.1-4.8l-4.6-10.9c-4,3.1-7.2,4.4-10.4,4.4   c-4.8,0-8.7-2.8-9.7-6.9c-0.7-2.3-0.8-5.3-0.8-10l0.3-42.8h23.1v-11.2h-22.9V451L1469.4,455.4z M1441.3,479.3h-14.7v29   c0,12.5-1.5,22.2-4.3,28.5c-3.8,8.6-10.7,13.5-18.4,13.5c-4.8,0-8.9-2.1-10.9-5.4c-1.6-3.1-2.3-7.1-2.3-14.3v-51.2h-14.5v53.2   c0,10.2,1.2,15.2,4.4,19.8c4.1,6.1,11,9.2,19.8,9.2c10,0,18-4,23.2-11.2c1.8-2.8,2.5-4.3,4.8-10.2c0.5,8.9,0.7,10.2,1.5,19.3h12.4   c-0.5-6.1-1-20.1-1-27.8V479.3z M1340.3,513.9c-0.3,12-1.2,17.5-4,22.7c-3.3,6.6-9.4,10.7-15.8,10.7c-11.7,0-19.4-11.9-19.4-29.3   c0-19.3,9.2-29.6,26.4-29.6c4.4,0,8.1,0.7,13.2,2.6L1340.3,513.9z M1354,481.6c-2.3-0.5-4.6-1.2-6.8-1.6c-7.6-2-14-2.8-20.9-2.8   c-26.2,0-40.2,14.5-40.2,41.3c0,24.5,12.5,40,32.4,40c11.7,0,19.6-5.8,22.2-16.1c0.3,5.1,0.5,7.2,0.5,10.4   c0,10.5-0.8,15.8-3.5,21.1c-3.5,7.2-10.5,11.4-19.8,11.4c-7.7,0-15.3-2.8-23.4-8.7l-5.4,11.4c8.9,5.8,18.3,8.6,29.3,8.6   c15,0,26.7-6.3,32.3-17.1c3.3-6.4,4.4-14.5,4.4-29.5c0-3.5-0.2-8.2-0.3-13.7c-0.3-11.9-0.5-20.9-0.5-24c0-8.1,0.5-27,0.8-30.1   L1354,481.6z M1123.9,479.3c0.3,6.8,0.5,14,0.5,15.8v64.2h14.7v-35.9c0-20.3,9.1-35.1,21.2-35.1c8.6,0,12.2,5.9,12.2,19.8v51.2   h14.7v-35.9c0-20.3,9.1-35.1,21.2-35.1c8.6,0,12.2,5.9,12.2,19.8v51.2h14.7v-53.2c0-19.6-7.7-29-23.6-29   c-12.8,0-21.6,6.4-25.4,18.9c-2.1-12.4-10-18.9-22.7-18.9c-13.7,0-22.1,6.9-26,21.2c-0.2-5.3-0.3-11.7-0.5-19.1H1123.9z    M1101,479.3h-14.7v29c0,12.5-1.5,22.2-4.3,28.5c-3.8,8.6-10.7,13.5-18.4,13.5c-4.8,0-8.9-2.1-10.9-5.4c-1.6-3.1-2.3-7.1-2.3-14.3   v-51.2h-14.5v53.2c0,10.2,1.2,15.2,4.4,19.8c4.1,6.1,11,9.2,19.8,9.2c10,0,18-4,23.2-11.2c1.8-2.8,2.5-4.3,4.8-10.2   c0.5,8.9,0.7,10.2,1.5,19.3h12.4c-0.5-6.1-1-20.1-1-27.8V479.3z M998.7,514.1c0,22.4-8.2,36.2-21.4,36.2c-12.5,0-20.6-12.2-20.6-31   c0-19.8,9.6-31,26.4-31c5.3,0,10.4,1.3,15.6,4.1V514.1z M998.7,480.6c-5.1-2.3-10.5-3.5-17.1-3.5c-24.9,0-39.9,16.3-39.9,43.3   c0,25.4,12.7,41,33.4,41c13.8,0,21.4-6.6,25.4-21.9c0.2,6.4,0.7,12.7,1.3,19.8h12.5c-0.3-7.7-1-24.9-1-28v-91.2h-14.7V480.6z    M910.9,559.4h14.7v-53.2c0-10.4-1.2-15.3-4.4-19.9c-4.3-6.1-11-9.1-20.3-9.1c-14.7,0-23.9,7.4-27.8,22.4   c-0.2-5.9-0.3-12.5-0.7-20.3h-13.2v1.8c0.3,11.5,0.5,16.6,0.5,20.8v57.5h14.7v-35.9c0-20.4,9.7-35.1,23.4-35.1   c5.3,0,8.9,2.1,11.2,6.6c1.5,3,2,6.4,2,13.2V559.4z M836.3,479.3h-14.7v29c0,12.5-1.5,22.2-4.3,28.5c-3.8,8.6-10.7,13.5-18.4,13.5   c-4.8,0-8.9-2.1-10.9-5.4c-1.6-3.1-2.3-7.1-2.3-14.3v-51.2h-14.5v53.2c0,10.2,1.2,15.2,4.4,19.8c4.1,6.1,11,9.2,19.8,9.2   c10,0,18-4,23.2-11.2c1.8-2.8,2.5-4.3,4.8-10.2c0.5,8.9,0.7,10.2,1.5,19.3h12.4c-0.5-6.1-1-20.1-1-27.8V479.3z M699.1,553   c8.4,5.9,16,8.6,25.5,8.6c18.4,0,29.8-9.2,29.8-24c0-11.9-5.6-18.1-22.9-25.2c-15-6.3-17.5-8.1-17.5-13.8c0-6.4,5.9-10.7,14.7-10.7   c5.9,0,11.9,2.5,17.5,6.9l5.3-10.7c-7.1-4.6-14.2-6.8-22.7-6.8c-17.5,0-28.2,8.2-28.2,21.7c0,9.6,4.3,14.8,17.1,20.6   c12.7,5.9,13.8,6.4,16.8,8.7c4.1,3.1,5.6,5.8,5.6,10c0,7.4-5.9,12.4-15,12.4c-6.6,0-13.7-3-20.6-8.4L699.1,553z M634.4,510   c2.3-13.8,10-21.6,21.6-21.6c10,0,16,6.6,16,18.1c0,1.2,0,1.8-0.2,3.5H634.4z M680.5,541.4c-6.8,5.9-14.2,8.9-22.1,8.9   c-14.8,0-23.7-10.7-24.2-29.3h50.4c1-4.8,1.5-9.1,1.5-14c0-19.1-10.7-29.8-29.8-29.8c-22.6,0-36.7,16-36.7,41.5   c0,11.9,2.6,21.4,7.9,29c6.6,9.4,16.1,13.8,30.1,13.8c11.5,0,21.4-3.1,29.3-9.1L680.5,541.4z M589.7,513.9c-0.3,12-1.2,17.5-4,22.7   c-3.3,6.6-9.4,10.7-15.8,10.7c-11.7,0-19.4-11.9-19.4-29.3c0-19.3,9.2-29.6,26.4-29.6c4.4,0,8.1,0.7,13.2,2.6L589.7,513.9z    M603.4,481.6c-2.3-0.5-4.6-1.2-6.8-1.6c-7.6-2-14-2.8-20.9-2.8c-26.2,0-40.2,14.5-40.2,41.3c0,24.5,12.5,40,32.4,40   c11.7,0,19.6-5.8,22.2-16.1c0.3,5.1,0.5,7.2,0.5,10.4c0,10.5-0.8,15.8-3.5,21.1c-3.5,7.2-10.5,11.4-19.8,11.4   c-7.7,0-15.3-2.8-23.4-8.7l-5.4,11.4c8.9,5.8,18.3,8.6,29.3,8.6c15,0,26.7-6.3,32.3-17.1c3.3-6.4,4.4-14.5,4.4-29.5   c0-3.5-0.2-8.2-0.3-13.7c-0.3-11.9-0.5-20.9-0.5-24c0-8.1,0.5-27,0.8-30.1L603.4,481.6z M464.7,559.4h18.9v-19.4h-18.9V559.4z    M418.6,559.4h18.9v-19.4h-18.9V559.4z M372.5,559.4h18.9v-19.4h-18.9V559.4z"/>
</g>
</svg>