<?xml version="1.0" standalone="no"?>
<!DOCTYPE svg PUBLIC "-//W3C//DTD SVG 20010904//EN"
 "http://www.w3.org/TR/2001/REC-SVG-20010904/DTD/svg10.dtd">
<svg version="1.0" xmlns="http://www.w3.org/2000/svg"
 width="185.000000pt" height="31.000000pt" viewBox="0 0 185.000000 31.000000"
 preserveAspectRatio="xMidYMid meet">
<metadata>
Created by potrace 1.16, written by Peter Selinger 2001-2019
</metadata>
<g transform="translate(0.000000,31.000000) scale(0.100000,-0.100000)"
fill="#000000" stroke="none">
<path d="M1136 295 c-3 -8 -12 -12 -20 -9 -26 10 -56 -14 -56 -47 0 -36 25
-49 48 -24 16 17 16 17 -5 12 -13 -3 -23 -1 -23 4 0 5 7 9 16 9 9 0 22 7 29
16 9 13 10 9 7 -20 -3 -27 0 -36 10 -36 9 0 15 10 15 28 0 15 3 40 7 55 5 20
3 27 -8 27 -8 0 -16 -7 -20 -15z"/>
<path d="M1360 300 c0 -5 -6 -10 -13 -10 -9 0 -13 -14 -13 -42 1 -28 5 -43 14
-42 6 1 21 2 32 3 15 1 20 8 20 31 0 17 5 30 10 30 6 0 9 -15 8 -32 -3 -33 -3
-33 46 -36 32 -1 52 2 58 10 6 10 8 10 8 1 0 -7 5 -13 11 -13 7 0 17 -7 24
-16 8 -12 20 -15 38 -10 20 5 28 14 33 42 6 34 7 34 18 13 15 -29 28 -33 51
-13 20 15 20 15 -2 11 -28 -6 -31 9 -3 16 25 6 28 47 3 47 -9 0 -25 -7 -35
-17 -17 -15 -18 -15 -18 0 0 11 -8 17 -25 17 -28 0 -61 -41 -51 -65 3 -8 1
-15 -4 -15 -12 0 -12 13 -1 63 7 29 6 37 -5 37 -8 0 -14 -5 -14 -11 0 -7 -21
-10 -57 -8 -32 2 -64 0 -70 -4 -12 -8 -17 -2 -14 16 0 4 -10 7 -24 7 -14 0
-25 -4 -25 -10z m11 -63 c-13 -13 -15 11 -4 40 7 16 8 15 11 -6 2 -13 -1 -28
-7 -34z m112 11 c-19 -21 -43 -24 -43 -5 0 20 8 25 35 23 22 -1 22 -2 8 -18z
m57 1 c0 -11 -4 -17 -10 -14 -6 4 -19 1 -28 -6 -9 -8 -6 -1 7 14 29 32 31 33
31 6z m71 -12 c-8 -8 -11 -7 -11 4 0 20 13 34 18 19 3 -7 -1 -17 -7 -23z"/>
<path d="M46 269 c-3 -17 -6 -35 -6 -40 0 -17 22 -9 42 16 13 17 29 25 49 25
29 0 29 0 -51 -107 -44 -58 -80 -112 -80 -120 0 -10 20 -13 84 -13 78 0 84 1
90 23 15 57 -10 82 -32 32 -9 -20 -19 -25 -48 -25 l-36 0 24 33 c113 150 138
185 138 195 0 8 -27 12 -84 12 l-83 0 -7 -31z"/>
<path d="M247 293 c-4 -3 -2 -12 4 -19 12 -15 -13 -160 -37 -208 -8 -16 -14
-31 -14 -33 0 -1 18 -3 40 -3 38 0 39 1 34 28 -7 32 33 212 47 212 5 0 9 7 9
15 0 11 -11 15 -38 15 -21 0 -42 -3 -45 -7z"/>
<path d="M367 293 c-4 -3 -2 -12 4 -19 12 -15 -13 -160 -37 -208 -8 -16 -14
-31 -14 -33 0 -1 38 -3 84 -3 l84 0 11 31 c14 41 14 49 -3 49 -7 0 -21 -11
-30 -25 -12 -18 -25 -25 -50 -25 l-34 0 12 48 c9 36 17 48 34 50 15 2 22 -2
22 -12 0 -32 29 -16 36 19 8 44 2 52 -28 31 -30 -21 -51 -21 -45 2 3 9 8 29
11 45 5 23 11 27 40 27 25 0 35 -5 39 -20 7 -26 37 -26 37 -1 0 11 3 26 6 35
5 14 -6 16 -83 16 -49 0 -93 -3 -96 -7z"/>
<path d="M620 293 c-33 -13 -50 -37 -50 -70 0 -28 8 -42 40 -70 22 -20 40 -44
40 -53 0 -40 -60 -55 -82 -20 -18 29 -35 25 -40 -10 -5 -34 5 -40 66 -40 61 0
96 29 96 80 0 31 -6 43 -32 65 -44 36 -51 51 -38 75 14 27 57 27 65 0 9 -29
32 -25 38 8 3 15 4 29 2 31 -7 7 -90 10 -105 4z"/>
<path d="M801 277 c-6 -8 -12 -24 -13 -38 -2 -13 -7 -27 -12 -30 -16 -12 3
-39 28 -39 29 0 43 20 52 79 6 39 5 41 -18 41 -14 0 -31 -6 -37 -13z m20 -40
c-8 -8 -11 -7 -11 4 0 20 13 34 18 19 3 -7 -1 -17 -7 -23z m-4 -43 c-3 -3 -12
-4 -19 -1 -8 3 -5 6 6 6 11 1 17 -2 13 -5z"/>
<path d="M887 278 c-23 -18 -26 -58 -5 -71 14 -9 21 -8 35 7 17 18 17 18 -4
13 -13 -3 -23 -1 -23 4 0 5 9 9 19 9 20 0 31 17 24 38 -3 6 -10 12 -17 12 -7
0 -20 -6 -29 -12z"/>
<path d="M942 273 c1 -10 -2 -30 -5 -45 -6 -22 -4 -28 8 -28 8 0 15 8 15 18 0
9 5 24 11 32 8 11 9 7 5 -17 -4 -25 -2 -33 9 -33 8 0 15 8 15 18 0 10 7 27 15
38 13 17 14 16 5 -16 -6 -19 -10 -36 -10 -37 0 -2 8 -3 18 -3 16 0 19 8 18 43
l-1 42 -52 3 c-44 2 -52 0 -51 -15z"/>
<path d="M1173 250 c-2 -47 11 -52 26 -10 14 40 21 38 14 -5 -4 -27 -2 -35 10
-35 11 0 15 10 13 42 -1 40 -3 43 -31 45 -29 2 -31 1 -32 -37z"/>
<path d="M1252 244 c-2 -54 10 -56 31 -6 l16 37 -6 -37 c-4 -29 -2 -38 9 -38
10 0 15 13 16 44 2 43 2 44 -31 44 -32 0 -33 -1 -35 -44z"/>
<path d="M798 139 c-23 -13 -34 -74 -18 -94 21 -25 55 -18 67 13 10 25 11 25
12 4 1 -26 25 -39 44 -24 7 6 18 7 27 2 7 -4 23 -4 35 0 14 5 27 4 33 -2 6 -6
16 -7 26 -1 9 5 43 6 76 3 33 -3 67 -2 76 3 9 5 20 5 27 -1 22 -18 73 -2 85
26 l12 27 -4 -27 c-2 -22 1 -28 15 -28 13 0 17 5 12 17 -5 13 -1 12 13 -5 15
-17 25 -20 44 -15 20 7 26 15 28 46 3 34 1 37 -22 37 -14 0 -31 -9 -40 -22
-13 -19 -16 -20 -16 -5 0 10 -7 20 -15 23 -8 4 -15 12 -15 20 0 28 -30 15 -31
-13 0 -16 -3 -22 -6 -15 -8 20 -40 14 -60 -12 -16 -22 -20 -23 -32 -10 -11 13
-10 15 4 12 10 -2 20 3 22 10 7 18 -46 15 -54 -4 -3 -8 -1 -20 6 -27 16 -16
14 -23 -10 -23 -15 0 -19 5 -15 21 3 11 8 32 11 48 6 20 4 27 -8 27 -11 0 -17
-15 -22 -50 -4 -27 -11 -50 -17 -50 -6 0 -8 11 -4 25 3 14 9 36 12 50 5 18 2
25 -9 25 -10 0 -17 -15 -21 -44 -6 -36 -11 -45 -31 -49 -14 -2 -25 0 -25 4 0
5 9 9 20 9 15 0 20 7 20 25 0 27 -26 35 -48 13 -9 -9 -12 -9 -12 0 0 16 -106
10 -122 -6 -7 -7 -22 -12 -34 -12 -18 0 -21 -4 -17 -21 4 -16 2 -20 -8 -17
-18 6 -13 48 8 68 12 11 17 12 20 3 7 -20 23 -15 23 7 0 22 -32 27 -62 9z
m182 -49 c8 -5 11 -10 5 -10 -5 0 -17 5 -25 10 -8 5 -10 10 -5 10 6 0 17 -5
25 -10z m280 -19 c0 -10 -8 -17 -20 -17 -19 0 -28 25 -14 39 11 10 34 -5 34
-22z m111 -4 c-8 -8 -11 -7 -11 4 0 20 13 34 18 19 3 -7 -1 -17 -7 -23z m-424
-3 c2 -5 -13 -9 -32 -9 -39 0 -47 11 -12 18 28 5 40 3 44 -9z"/>
<path d="M1440 135 c-12 -15 -18 -36 -19 -72 -1 -12 -8 -29 -17 -38 -18 -18
-13 -30 10 -22 9 4 21 27 27 52 13 50 35 64 24 15 -5 -23 -3 -32 10 -36 9 -4
22 -1 28 6 9 10 9 14 0 17 -18 7 -16 30 3 41 15 8 15 11 -5 31 -25 25 -44 27
-61 6z"/>
<path d="M1683 138 c0 -7 -3 -32 -7 -54 -6 -33 -4 -43 9 -48 9 -3 25 -1 36 4
23 13 26 68 4 76 -8 4 -15 12 -15 20 0 8 -6 14 -13 14 -8 0 -14 -6 -14 -12z
m37 -50 c0 -19 -18 -43 -25 -36 -4 3 -2 16 5 27 12 24 20 27 20 9z"/>
<path d="M1764 135 c3 -9 0 -34 -8 -55 -13 -37 -12 -40 5 -40 12 0 19 7 19 20
0 11 7 20 16 20 11 0 14 -6 9 -20 -5 -15 -2 -20 12 -20 12 0 18 8 19 23 0 12
4 37 8 55 6 26 5 32 -8 32 -10 0 -16 -9 -16 -25 0 -16 -6 -25 -16 -25 -12 0
-15 6 -10 25 5 21 3 25 -15 25 -15 0 -19 -5 -15 -15z"/>
<path d="M1552 79 c-1 -21 3 -39 8 -39 6 0 10 6 10 13 0 7 7 22 15 33 14 18
14 17 9 -13 -4 -22 -3 -33 5 -33 6 0 11 6 11 13 0 7 7 22 15 33 14 18 14 17 9
-13 -5 -25 -3 -33 8 -33 9 0 14 12 13 37 l0 37 -51 2 -51 2 -1 -39z"/>
</g>
</svg>
