<?xml version="1.0" encoding="UTF-8"?>
<svg xmlns="http://www.w3.org/2000/svg" id="Ebene_1" data-name="Ebene 1" viewBox="0 0 246.7 40.4">
  <defs>
    <style>.cls-1{fill:#1b6eb1}.cls-2{fill:#515151}</style>
  </defs>
  <path class="cls-1" d="M20.1 30a12.8 12.8 0 0 1-1 1.7 9.4 9.4 0 0 1-1 1 3.9 3.9 0 0 1-1 .8l-1.2.4H6.2L28.7 3.8l.2-1.2H7.6L5.7 11h2.4a19.2 19.2 0 0 1 1.4-2.6l1.1-1.6a7.5 7.5 0 0 1 .9-.9l.8-.5 1.1-.4h9.2L.2 35.1 0 36.3h21.9l1.9-8.9h-2.4c-.5 1-.9 1.9-1.3 2.6zM43.4 2.6h-9.9l-.2 1.3a3 3 0 0 1 1.8.5 1.8 1.8 0 0 1 .6 1.6 14.1 14.1 0 0 1-.2 1.8 20.7 20.7 0 0 1-.4 2.2l-4.2 19a26.5 26.5 0 0 1-.8 3.3 3.5 3.5 0 0 1-.6 1.4 2.2 2.2 0 0 1-.7.9 4.4 4.4 0 0 1-1.5.5l-.2 1.2h9.8l.3-1.2c-.9-.1-1.5-.2-1.8-.6a1.8 1.8 0 0 1-.6-1.5 9.2 9.2 0 0 1 .1-1.6c.1-.5.2-1.3.4-2.3L39.5 10l.9-3.4a4.8 4.8 0 0 1 .7-1.6 2.3 2.3 0 0 1 .7-.7 3.3 3.3 0 0 1 1.3-.4zm6.1 0l-.3 1.3a3.1 3.1 0 0 1 1.9.5 1.8 1.8 0 0 1 .6 1.6 18.4 18.4 0 0 1-.6 4l-4.2 19a26.5 26.5 0 0 1-.8 3.3l-.6 1.4a2.4 2.4 0 0 1-.8.9 3.8 3.8 0 0 1-1.4.5l-.2 1.2h21.8l2.2-8.5h-2.4l-1.6 3a11.1 11.1 0 0 1-1.2 1.6 5.3 5.3 0 0 1-1.2 1 3.5 3.5 0 0 1-1.4.6h-9.1l3.2-14.2h6.2l.6.2.4.5c.2.2.2.5.3 1a10.4 10.4 0 0 1 .1 2h2.1l2.2-9.5h-2.2a12.1 12.1 0 0 1-1.4 2.2 3.8 3.8 0 0 1-1.3 1 5 5 0 0 1-1.9.3h-4.7l2.8-12.7h9.5l.8.4a1 1 0 0 1 .5.7 7.2 7.2 0 0 1 .5 1.4 19.1 19.1 0 0 1 .2 2.8h2.4l1.7-7.6zm38.2-.3a13.8 13.8 0 0 0-5.9 1.2 9.5 9.5 0 0 0-4 3.4 9.8 9.8 0 0 0-1.4 5.1 7.3 7.3 0 0 0 .8 3.3 8.3 8.3 0 0 0 1.9 2.7 19.7 19.7 0 0 0 3 2.4 18.7 18.7 0 0 1 3.1 2.4 7.7 7.7 0 0 1 1.6 2.2 5.9 5.9 0 0 1 .5 2.7 6.8 6.8 0 0 1-.8 3.6 5.3 5.3 0 0 1-2.5 2.4 7.5 7.5 0 0 1-3.9.9 5.6 5.6 0 0 1-4.3-1.5 6.5 6.5 0 0 1-1.4-4.5h-2.3l-1.5 6.8a48 48 0 0 0 4.7 1l4.9.3a13.2 13.2 0 0 0 6-1.3 8.8 8.8 0 0 0 4-3.6 9.4 9.4 0 0 0 1.5-5.3 9 9 0 0 0-.6-3.4 8.2 8.2 0 0 0-1.9-2.8 21.5 21.5 0 0 0-3.7-3 19.1 19.1 0 0 1-2.8-2.3 4.6 4.6 0 0 1-1.4-1.9 5.9 5.9 0 0 1-.5-2.3 7.3 7.3 0 0 1 .8-3.3A6.4 6.4 0 0 1 84 5.3a7.6 7.6 0 0 1 6.3-.4 3.4 3.4 0 0 1 1.5 1.8 8.9 8.9 0 0 1 .7 3.2h2.3l1.4-6.3a26.3 26.3 0 0 0-4.3-1 26.7 26.7 0 0 0-4.2-.3z"></path>
  <path class="cls-2" d="M112.8 4.4a3.4 3.4 0 0 0-1.1-.5l-1.2-.2a3.7 3.7 0 0 0-1.5.3l-1.4.8a9.8 9.8 0 0 0-1.2 1.5 8.4 8.4 0 0 0-.8 1.9 7.8 7.8 0 0 0-.3 2.2 3.9 3.9 0 0 0 .6 2.3 2.1 2.1 0 0 0 1.7.8 3 3 0 0 0 1.8-.6 11.3 11.3 0 0 0 1.8-1.9h.1a22.6 22.6 0 0 1-.7 2.8 7.5 7.5 0 0 1-.8 1.8 3.8 3.8 0 0 1-1.1 1.1 3.8 3.8 0 0 1-1.6.3 3.2 3.2 0 0 1-1.6-.3 1.3 1.3 0 0 1-.6-1.1.7.7 0 0 1 .1-.5.8.8 0 0 1 .2-.4c0-.2.2-.3.3-.5l-.7-.6a5.7 5.7 0 0 0-1.1 1 1.8 1.8 0 0 0-.4 1c0 1.5 1.3 2.2 3.8 2.2l1.8-.2a6.1 6.1 0 0 0 1.4-.7 9.4 9.4 0 0 0 1-1c.3-.5.5-1.1.8-1.7s.4-1.7.7-3.3l.3-1.3a4.3 4.3 0 0 1 .2-1.1l1-4.6-.6-.2zm-1 3.3a7.8 7.8 0 0 1-.5 1.8 8 8 0 0 1-.9 1.4 3.8 3.8 0 0 1-1.1 1.1 1.7 1.7 0 0 1-1 .3.9.9 0 0 1-.9-.5 2.8 2.8 0 0 1-.3-1.5 4.4 4.4 0 0 1 .2-1.6 7.5 7.5 0 0 1 .4-1.6 6.7 6.7 0 0 1 .6-1.2l.8-.8.7-.5h.8a1.2 1.2 0 0 1 1.1.4 1.6 1.6 0 0 1 .3 1 5.2 5.2 0 0 1-.2 1.7zM121 12a4.7 4.7 0 0 1-1.7.4 1.7 1.7 0 0 1-1.3-.5 2.1 2.1 0 0 1-.4-1.5 5.3 5.3 0 0 1 .1-1.3 9.8 9.8 0 0 0 4.7-.9 2.7 2.7 0 0 0 1.6-2.5 1.8 1.8 0 0 0-.6-1.5 3 3 0 0 0-1.8-.5 5.9 5.9 0 0 0-2.3.5 7 7 0 0 0-1.9 1.5 6.5 6.5 0 0 0-1.1 2.2 6.6 6.6 0 0 0-.4 2.3 2.7 2.7 0 0 0 .2 1.3 3.7 3.7 0 0 0 .5 1.1l.9.7 1.4.2 1.5-.2a3.8 3.8 0 0 0 1.3-.6l1.4-1.3-.6-.7A5.8 5.8 0 0 1 121 12zm-2.3-5.7a3.7 3.7 0 0 1 1.2-1.3 2.4 2.4 0 0 1 1.3-.5 1.2 1.2 0 0 1 .9.3 3 3 0 0 1 .2 1v.6l-.3.6c-.1.2-.3.3-.5.5l-.9.4-1.1.2h-1.6a6.4 6.4 0 0 1 .8-1.8zm8 .3l-1.5 6.8h1.7l.9-4.3a7.5 7.5 0 0 1 .5-1.6 7.7 7.7 0 0 1 .9-1.3l1-1 .9-.3a1.1 1.1 0 0 1 .8.3 2.2 2.2 0 0 1 .2 1 2.5 2.5 0 0 1-.1.8 10.5 10.5 0 0 1-.2 1.3l-1.2 5.1h1.7l.9-4.4a5.2 5.2 0 0 1 .6-1.5 5.7 5.7 0 0 1 .8-1.3l1-1a1.6 1.6 0 0 1 .9-.3 1.1 1.1 0 0 1 .8.3 2.2 2.2 0 0 1 .2 1 3.8 3.8 0 0 1-.1 1c-.1.4-.1.8-.2 1.1l-1.3 5.1h3.1v-.5l-.7-.2-.3-.2a4.3 4.3 0 0 1-.1-.5 6.5 6.5 0 0 1 .2-1.1l.8-3.5a5 5 0 0 0 .2-1.6 1.7 1.7 0 0 0-.5-1.5 1.7 1.7 0 0 0-1.4-.6 3.2 3.2 0 0 0-1.8.6 10 10 0 0 0-1.7 1.8v-.3a1.7 1.7 0 0 0-.5-1.5 1.7 1.7 0 0 0-1.4-.6 2.7 2.7 0 0 0-1.8.7 7.2 7.2 0 0 0-1.8 2h-.2l.7-2.6H126v.5h.7c.1.1.2.1.2.2a.7.7 0 0 1 .1.5 2 2 0 0 1-.1.7c-.1.5-.2.7-.2.9zm15.4 6a3.1 3.1 0 0 0 .9.7l1.4.2 1.5-.2a3.8 3.8 0 0 0 1.3-.6l1.4-1.3-.6-.7a6.1 6.1 0 0 1-1.6 1.3 3.8 3.8 0 0 1-1.6.4 1.6 1.6 0 0 1-1.3-.5 2.1 2.1 0 0 1-.4-1.5 5.3 5.3 0 0 1 .1-1.3 9.8 9.8 0 0 0 4.7-.9 2.6 2.6 0 0 0 1.5-2.5 1.8 1.8 0 0 0-.6-1.5 2.9 2.9 0 0 0-1.7-.5 5.6 5.6 0 0 0-2.3.5 5.8 5.8 0 0 0-1.9 1.5 9.4 9.4 0 0 0-1.2 2.2 9.7 9.7 0 0 0-.3 2.3 5.3 5.3 0 0 0 .1 1.3 3.9 3.9 0 0 0 .6 1.1zm2.1-6.3a4.7 4.7 0 0 1 1.1-1.3 2.7 2.7 0 0 1 1.4-.5 1 1 0 0 1 .8.3 1.7 1.7 0 0 1 .3 1 1.3 1.3 0 0 1-.1.6 1.4 1.4 0 0 1-.2.6l-.5.5-.9.4-1.2.2h-1.6a6.6 6.6 0 0 1 .9-1.8zM155.4 0h-1.8l-.4 1.9h1.7l.5-1.9zm-3.2 6.7l-1.5 6.7h3.1v-.5l-.6-.2c-.2 0-.3-.1-.3-.2a.7.7 0 0 1-.1-.5v-.4a5.6 5.6 0 0 0 .1-.7l1.6-7.1h-3v.5h.6c.2.1.3.1.3.2a.9.9 0 0 1 .1.5v.6a6.4 6.4 0 0 0-.3 1.1zm9.1-1.5l.8-.3a1 1 0 0 1 .8.3c.2.2.2.5.2 1a4.5 4.5 0 0 1-.1 1.1 3.6 3.6 0 0 1-.2 1l-1.3 5.1h3.2v-.5l-.6-.2c-.2 0-.3-.1-.3-.2a.7.7 0 0 1-.1-.5 4.9 4.9 0 0 1 .1-1.1l.9-3.5c0-.3.1-.5.1-.8s.1-.5.1-.8a2.1 2.1 0 0 0-.5-1.5 1.9 1.9 0 0 0-1.5-.6 2.7 2.7 0 0 0-1.8.7 9.3 9.3 0 0 0-1.9 2h-.1l.7-2.6H157v.5h.6c.2.1.3.1.3.2a.7.7 0 0 1 .1.5 2 2 0 0 1-.1.7c0 .3-.1.5-.1.7l-1.5 6.8h1.7l.9-4.3a3.4 3.4 0 0 1 .6-1.6 5.7 5.7 0 0 1 .8-1.3 3.3 3.3 0 0 1 1-.8zm7.2 1.4l-1.5 6.8h1.8l.9-4.3a5 5 0 0 1 .5-1.6l.9-1.3 1-1a1.6 1.6 0 0 1 .9-.3 1 1 0 0 1 .8.3 2.2 2.2 0 0 1 .2 1 4.5 4.5 0 0 1-.1 1.1 3.6 3.6 0 0 0-.2 1l-1.3 5.1h3.1v-.5l-.7-.2-.3-.2a.7.7 0 0 1-.1-.5 6.5 6.5 0 0 1 .2-1.1l.8-3.5.2-.8v-.8a1.7 1.7 0 0 0-.5-1.5 1.7 1.7 0 0 0-1.4-.6 2.7 2.7 0 0 0-1.8.7 7.4 7.4 0 0 0-1.9 2l.6-2.6h-2.8v.5h.7l.3.2a4.3 4.3 0 0 1 .1.5c0 .2-.1.4-.1.7a6.4 6.4 0 0 1-.3.9zM186.8.1h-1.7l-.4 1.7h1.7l.4-1.7zm-3.2 0h-1.7l-.3 1.7h1.6l.4-1.7zm-3.3 13.4a3.2 3.2 0 0 0 1.8-.6 13.7 13.7 0 0 0 1.9-2.1h.1l-.6 2.5h2.8v-.5l-.9-.2a1.4 1.4 0 0 1-.2-.6 1.7 1.7 0 0 1 .1-.7 5.6 5.6 0 0 1 .1-.7l1.6-6.7h-1.7l-.9 4.3a5.3 5.3 0 0 1-.5 1.5 7.7 7.7 0 0 1-.9 1.3 3.1 3.1 0 0 1-1 1 1.8 1.8 0 0 1-.9.4.8.8 0 0 1-.8-.4 2.2 2.2 0 0 1-.2-1 3.8 3.8 0 0 1 .1-1 5.2 5.2 0 0 1 .2-1.1l1.3-5h-3.1v.5l.8.2a.6.6 0 0 1 .3.6.9.9 0 0 1-.1.5 2.3 2.3 0 0 1-.1.7l-.8 3.5a2.4 2.4 0 0 0-.2.8v.7a2.1 2.1 0 0 0 .5 1.6 2 2 0 0 0 1.3.5zm9.1-3.5a7.8 7.8 0 0 0-.2 1.4 2.5 2.5 0 0 0 .5 1.6 2.5 2.5 0 0 0 1.6.5 3.4 3.4 0 0 0 1.7-.5 7.1 7.1 0 0 0 1.6-1.5l-.6-.6-1.1 1.1a1.8 1.8 0 0 1-.9.4.8.8 0 0 1-.8-.4 1.2 1.2 0 0 1-.3-.9 19.3 19.3 0 0 1 .4-2.4l1-3.8h3.1l.2-1h-3.1l.5-2.5h-1.3c-.2.7-.4 1.1-.5 1.5a4.3 4.3 0 0 1-.4.7l-.6.5-.9.3-.2.5h1.5zM204 3.9h-7.1l-.6 2.6h.9a4.4 4.4 0 0 1 .6-1l.5-.5.5-.2h3.1l-1.6 1.8-5.5 6.3.2.5h7.2l.6-2.8h-.9a3.6 3.6 0 0 1-.6 1.1l-.5.5-.6.3H197l7.1-8.1zm5.6-3.9h-1.8l-.4 1.9h1.7l.5-1.9zm-3.2 6.7l-1.5 6.7h3.1v-.5l-.6-.2c-.2 0-.3-.1-.3-.2a.7.7 0 0 1-.1-.5v-.4a5.6 5.6 0 0 0 .1-.7l1.6-7.1h-3v.5h.6c.2.1.3.1.3.2a.9.9 0 0 1 .1.5v.6a6.4 6.4 0 0 0-.3 1.1zm3.8 8l.3-.5-.7-.6-1.1 1a1.7 1.7 0 0 0-.3 1c0 1.5 1.3 2.2 3.8 2.2l1.8-.2 1.3-.7 1-1a8.9 8.9 0 0 0 .8-1.7c.2-.6.4-1.7.8-3.3l.2-1.3a4.3 4.3 0 0 0 .2-1.1l1.1-4.6-.7-.2-.9.7a2.2 2.2 0 0 0-1.1-.5l-1.2-.2a4 4 0 0 0-1.5.3 5.7 5.7 0 0 0-1.3.8 4.4 4.4 0 0 0-1.2 1.5 5.4 5.4 0 0 0-.8 1.9 7.8 7.8 0 0 0-.3 2.2 3.9 3.9 0 0 0 .6 2.3 2.1 2.1 0 0 0 1.7.8 2.7 2.7 0 0 0 1.7-.6 6.6 6.6 0 0 0 1.8-1.9h.2c-.3 1.2-.5 2.1-.7 2.8a15.9 15.9 0 0 1-.8 1.8 3.8 3.8 0 0 1-1.1 1.1 4.3 4.3 0 0 1-1.7.3 3.5 3.5 0 0 1-1.6-.3 1.4 1.4 0 0 1-.5-1.1v-.5c.1-.1.1-.3.2-.4zm6.1-5.2l-.8 1.4-1.1 1.1a1.9 1.9 0 0 1-1 .3 1 1 0 0 1-1-.5 3 3 0 0 1-.2-1.5 8.6 8.6 0 0 1 .1-1.6 7.5 7.5 0 0 1 .5-1.6 3.4 3.4 0 0 1 .6-1.2l.7-.8.8-.5h.8a1.2 1.2 0 0 1 1.1.4 1.6 1.6 0 0 1 .3 1.1 11.1 11.1 0 0 1-.2 1.7 7.6 7.6 0 0 1-.6 1.7zm9.1 3.8a4.2 4.2 0 0 0 1.4-.6l1.4-1.3-.6-.7A8.3 8.3 0 0 1 226 12a4.2 4.2 0 0 1-1.6.4 2 2 0 0 1-1.4-.5 2.7 2.7 0 0 1-.4-1.5 5.1 5.1 0 0 1 .2-1.3 9.4 9.4 0 0 0 4.6-.9 2.6 2.6 0 0 0 1.6-2.5 1.8 1.8 0 0 0-.6-1.5 3 3 0 0 0-1.8-.5 5.9 5.9 0 0 0-2.3.5 6.5 6.5 0 0 0-1.8 1.5 9.4 9.4 0 0 0-1.2 2.2 10.1 10.1 0 0 0-.4 2.3 5.1 5.1 0 0 0 .2 1.3 2.4 2.4 0 0 0 .6 1.1 2.2 2.2 0 0 0 .9.7l1.4.2zm-1.7-7a7.7 7.7 0 0 1 1.2-1.3 2.7 2.7 0 0 1 1.4-.5 1.1 1.1 0 0 1 .8.3 1.7 1.7 0 0 1 .3 1 1.3 1.3 0 0 1-.1.6.9.9 0 0 1-.3.6c-.1.2-.3.3-.5.5l-.8.4-1.2.2h-1.6a10.8 10.8 0 0 1 .8-1.8zM106.3 27.1a14.5 14.5 0 0 1 1.2-2.2 5.3 5.3 0 0 1 1.3-1.3 2.9 2.9 0 0 1 1.6-.4l1.1.2a1.3 1.3 0 0 1 .6.7 2.9 2.9 0 0 1 .3 1.4h1l.6-2.7-1.7-.4h-1.8l-1.5.2a3.5 3.5 0 0 0-1.4.6 6 6 0 0 0-1.3.9l-1.2 1.5-.9 1.9a15.5 15.5 0 0 0-.6 2.3 8.6 8.6 0 0 0-.2 2.2 5.6 5.6 0 0 0 .4 2.3 2.9 2.9 0 0 0 1.3 1.4 3.1 3.1 0 0 0 2 .5h.9l.9-.3 1.1-.4.5.8.8-.3.7-3.1a8.9 8.9 0 0 0 .2-1.1l.3-.7c0-.1.1-.2.2-.3l.2-.2h.5v-.5h-3.9l-.2.5c.4 0 .6 0 .8.2a.8.8 0 0 1 .2.6 10 10 0 0 1-.2 1.6v.5a3 3 0 0 1-.4 1l-.7.6-.8.3h-.8a1.7 1.7 0 0 1-1.6-.8 3.8 3.8 0 0 1-.6-2.4 11.2 11.2 0 0 1 .3-2.4 19.8 19.8 0 0 1 .8-2.7zm14.2-.8a4.6 4.6 0 0 0-2.3.6 4.5 4.5 0 0 0-1.9 1.5 5.3 5.3 0 0 0-1.1 2.1 7 7 0 0 0-.4 2.3 5.1 5.1 0 0 0 .2 1.3 2.8 2.8 0 0 0 .5 1.1l1 .7a2.5 2.5 0 0 0 1.3.2 3.9 3.9 0 0 0 1.5-.2 3.8 3.8 0 0 0 1.3-.6A5.7 5.7 0 0 0 122 34l-.6-.6a7.9 7.9 0 0 1-1.5 1.2 3.3 3.3 0 0 1-1.7.4 1.7 1.7 0 0 1-1.3-.5 2.1 2.1 0 0 1-.4-1.5 5.3 5.3 0 0 1 .1-1.3 11.4 11.4 0 0 0 4.7-.8 2.9 2.9 0 0 0 1.6-2.6 2 2 0 0 0-.6-1.5 3 3 0 0 0-1.8-.5zm.7 2.7l-.3.6-.5.5-.8.4-1.2.3h-1.6a5.4 5.4 0 0 1 .8-1.9 4.1 4.1 0 0 1 1.2-1.4 2.4 2.4 0 0 1 1.3-.5 1 1 0 0 1 .9.4 2 2 0 0 1 .2.9zm5.2-2.3a2 2 0 0 0-1.1.9 2.4 2.4 0 0 0-.5 1.4 1.7 1.7 0 0 0 .3 1 1.6 1.6 0 0 0 .6.8 2.7 2.7 0 0 0 1 .8 3.6 3.6 0 0 1 .9.8 2.1 2.1 0 0 1 .4.6 1.9 1.9 0 0 1 .2.8 1.6 1.6 0 0 1-.5 1.1 2 2 0 0 1-1.4.5 1.7 1.7 0 0 1-1.3-.5 1.8 1.8 0 0 1-.5-1.4h-.8l-.5 2.2 1.5.3h1.6a4.8 4.8 0 0 0 1.8-.3 2.7 2.7 0 0 0 1.2-.9 3 3 0 0 0 .5-1.6 3.3 3.3 0 0 0-.4-1.4 6 6 0 0 0-1.4-1.3l-1-.7-.5-.6a1.7 1.7 0 0 1-.1-.7 1.9 1.9 0 0 1 .2-.8 1 1 0 0 1 .6-.5l.8-.2a2.2 2.2 0 0 1 1.3.4 3.2 3.2 0 0 1 .5 1.3h.8l.4-2a8.2 8.2 0 0 0-2.8-.4 4.8 4.8 0 0 0-1.8.4zm11.1-.4a4.6 4.6 0 0 0-2.3.6 4.3 4.3 0 0 0-1.8 1.5 4.5 4.5 0 0 0-1.2 2.1 7 7 0 0 0-.4 2.3 5.1 5.1 0 0 0 .2 1.3 2.8 2.8 0 0 0 .5 1.1l1 .7a2.7 2.7 0 0 0 1.3.2 3.4 3.4 0 0 0 1.5-.2 4.2 4.2 0 0 0 1.4-.6l1.4-1.3-.7-.6a7.9 7.9 0 0 1-1.5 1.2 3.1 3.1 0 0 1-1.7.4 1.7 1.7 0 0 1-1.3-.5 2.1 2.1 0 0 1-.4-1.5 5.3 5.3 0 0 1 .1-1.3 11 11 0 0 0 4.7-.8 2.7 2.7 0 0 0 1.6-2.6 2 2 0 0 0-.6-1.5 3 3 0 0 0-1.8-.5zm.7 2.7c-.1.2-.1.4-.3.6a1.2 1.2 0 0 1-.5.5l-.8.4-1.2.3h-1.6a8.4 8.4 0 0 1 .8-1.9 4.1 4.1 0 0 1 1.2-1.4 2.4 2.4 0 0 1 1.3-.5 1 1 0 0 1 .9.4 1.2 1.2 0 0 1 .3.9c0 .3-.1.5-.1.7zm5.1 4.5l2.6-11.7h-3.1v.5h.7l.3.2a.7.7 0 0 1 .1.5v.3a.9.9 0 0 1-.1.5 1.8 1.8 0 0 1-.1.6L141 36h3.1v-.5h-.7l-.3-.3a.7.7 0 0 1-.1-.5v-.4c.2-.2.2-.5.3-.8zm5.3 1.6a4.3 4.3 0 0 1-.1-.5.8.8 0 0 1 .1-.4 2.3 2.3 0 0 1 .1-.7l2.6-11.7h-3.1v.5h.7l.3.2a.7.7 0 0 1 .1.5v.3a.9.9 0 0 1-.1.5 1.8 1.8 0 0 1-.1.6L146.4 36h3.1v-.5h-.7zm5.6-8.4a3.1 3.1 0 0 0-1.1.9 2.3 2.3 0 0 0-.4 1.4 3 3 0 0 0 .2 1 1.6 1.6 0 0 0 .6.8 3.9 3.9 0 0 0 1 .8 3.6 3.6 0 0 1 .9.8l.5.6a1.9 1.9 0 0 1 .1.8 1.3 1.3 0 0 1-.5 1.1 1.9 1.9 0 0 1-1.3.5 2 2 0 0 1-1.4-.5 2.3 2.3 0 0 1-.5-1.4h-.8l-.4 2.2 1.5.3h1.6a4.7 4.7 0 0 0 1.7-.3 2.7 2.7 0 0 0 1.2-.9 3 3 0 0 0 .5-1.6 2.3 2.3 0 0 0-.4-1.4 7.9 7.9 0 0 0-1.3-1.3 2.9 2.9 0 0 1-1-.7 1.3 1.3 0 0 1-.5-.6 1.9 1.9 0 0 1-.2-.7 1.9 1.9 0 0 1 .2-.8l.6-.5.9-.2a1.9 1.9 0 0 1 1.2.4 1.7 1.7 0 0 1 .5 1.3h.8l.5-2a8.8 8.8 0 0 0-2.9-.4 4.8 4.8 0 0 0-1.8.4zm11-.3a5.4 5.4 0 0 0-2.2.4 4.7 4.7 0 0 0-1.7 1.5 7.4 7.4 0 0 0-1.6 4.5 4.4 4.4 0 0 0 .7 2.5 2.8 2.8 0 0 0 2.2.9 5 5 0 0 0 2.1-.5 6 6 0 0 0 1.8-1.5l-.6-.6a4.1 4.1 0 0 1-1.4 1 2.4 2.4 0 0 1-1.5.4l-.8-.2-.5-.4a1.4 1.4 0 0 1-.2-.6 2.2 2.2 0 0 1-.1-.8 9.7 9.7 0 0 1 .5-2.8 6.3 6.3 0 0 1 1.3-2.3 2.5 2.5 0 0 1 1.8-.8l.7.2.3.5a3.1 3.1 0 0 1 .1 1.1h1.1l.4-2.2-1-.3zm10.2 7.1l.9-3.5a10.4 10.4 0 0 0 .2-1.5 2.3 2.3 0 0 0-.5-1.6 2 2 0 0 0-1.5-.5 2.8 2.8 0 0 0-1.7.5 7.6 7.6 0 0 0-1.8 1.8h-.1l1.7-6.9h-3.1v.5l.9.2a.6.6 0 0 1 .3.6.4.4 0 0 1-.1.3v.4a4.5 4.5 0 0 0-.2.8L167.8 36h1.7l.9-4.3a5.3 5.3 0 0 1 .5-1.5 5.1 5.1 0 0 1 .9-1.3 3.1 3.1 0 0 1 1-1 1.2 1.2 0 0 1 .9-.4 1 1 0 0 1 .8.3 1.5 1.5 0 0 1 .2 1 3.4 3.4 0 0 1-.1 1 5 5 0 0 1-.2 1.2l-1.3 5h3.2v-.5h-.6l-.4-.3a4.3 4.3 0 0 1-.1-.5c0-.1.1-.2.1-.4s.1-.5.1-.8zm11.4 2.5v-.5a1.3 1.3 0 0 1-.8-.2.9.9 0 0 1-.3-.6 1.5 1.5 0 0 1 .1-.6 5.1 5.1 0 0 1 .2-.9l1.5-6.7-.7-.2-.9.7-1.1-.5-1.2-.2a4.7 4.7 0 0 0-1.7.4 4.2 4.2 0 0 0-1.5 1.1 5.6 5.6 0 0 0-1 1.5 13.4 13.4 0 0 0-.7 1.8 12.3 12.3 0 0 0-.2 1.9 3.7 3.7 0 0 0 .6 2.3 1.9 1.9 0 0 0 1.7.8 3.2 3.2 0 0 0 1.8-.6 7.2 7.2 0 0 0 1.8-2h.1L184 36zm-2.2-4.1a8.3 8.3 0 0 1-.7 1.3l-.9 1.1a2.5 2.5 0 0 1-.8.5l-.6.2a1.1 1.1 0 0 1-1-.5 6.3 6.3 0 0 1-.2-1.6 9.2 9.2 0 0 1 .1-1.6 6.6 6.6 0 0 1 .5-1.5l.6-1.3.7-.8.8-.4.8-.2a1.2 1.2 0 0 1 1.1.4 1.6 1.6 0 0 1 .3 1.1v.6c0 .2-.1.5-.1.8v.4a5.3 5.3 0 0 1-.6 1.5zm9.2-8.1a3.6 3.6 0 0 1 .7-1 1.4 1.4 0 0 1 .9-.3.9.9 0 0 1 .7.3 2.9 2.9 0 0 1 .4.8h.8l.4-1.7H196a4 4 0 0 0-2.7.9 5 5 0 0 0-1.7 2.6 2.2 2.2 0 0 1-.3.9c0 .2-.1.4-.2.4l-.3.3h-.7v.5h1.2l-2 8.9a10.3 10.3 0 0 1-.5 1.6 3.6 3.6 0 0 1-.5.9l-.6.5H186l-.2.9h.8a4.2 4.2 0 0 0 2-.4 3.5 3.5 0 0 0 1.4-1.3 11.8 11.8 0 0 0 1-2.5l1.8-8.7h2.3l.2-1H193l.3-1.1a5 5 0 0 1 .5-1.5zm5.7.3h-1.3l-.5 1.4a5.6 5.6 0 0 1-.5.8c-.1.2-.3.3-.5.5l-1 .2v.5h1.5l-1.2 5.2a6.8 6.8 0 0 0-.2 1.4 2.3 2.3 0 0 0 .5 1.5 2.1 2.1 0 0 0 1.6.5 2.8 2.8 0 0 0 1.7-.5 9.4 9.4 0 0 0 1.6-1.4l-.6-.6-1.1 1a1.4 1.4 0 0 1-1 .4.8.8 0 0 1-.7-.3 1.2 1.2 0 0 1-.3-.9 8.5 8.5 0 0 1 .4-2.4l1-3.9h3.1l.2-1H199zm21 5.9a4.4 4.4 0 0 0 .2-1.5 2.4 2.4 0 0 0-.4-1.6 2 2 0 0 0-1.5-.5 2.6 2.6 0 0 0-1.7.5 7.6 7.6 0 0 0-1.8 1.8h.1a2.5 2.5 0 0 0-.5-1.6 2 2 0 0 0-1.5-.5 3.2 3.2 0 0 0-1.8.6 9 9 0 0 0-1.8 2h-.1l.6-2.6h-2.8v.4h.7l.3.3v1.1c-.1.3-.1.6-.2.7l-1.6 6.9h1.7l.9-4.3a5.3 5.3 0 0 1 .5-1.5 5.5 5.5 0 0 1 .9-1.4l1-1 .9-.3a1.1 1.1 0 0 1 .8.3 2.9 2.9 0 0 1 .1 1.8c0 .3-.1.7-.2 1.4l-1.2 5h1.7l.9-4.3a4.9 4.9 0 0 1 .6-1.6l.8-1.3 1-1a1.9 1.9 0 0 1 .9-.3 1 1 0 0 1 .8.3 2.5 2.5 0 0 1 .2 1 3.4 3.4 0 0 1-.1 1 5 5 0 0 1-.2 1.2l-1.3 5h3.1v-.5h-.7l-.3-.3a4.3 4.3 0 0 1-.1-.5 8.9 8.9 0 0 1 .2-1.1zm9-3.6a3 3 0 0 0-1.7.5 11.3 11.3 0 0 0-1.8 1.9h-.1l1.8-7h-3.1v.5l.9.2a.8.8 0 0 1 .2.6 2 2 0 0 1-.1.7c0 .4-.1.6-.1.8L222.8 36h.7l.9-.6a4.1 4.1 0 0 0 2.3.6 3.9 3.9 0 0 0 1.5-.2 3.8 3.8 0 0 0 1.3-.9 3.3 3.3 0 0 0 1.2-1.4 6 6 0 0 0 .8-2 7.6 7.6 0 0 0 .3-2.1 3.7 3.7 0 0 0-.6-2.3 1.8 1.8 0 0 0-1.7-.7zm.4 4.6l-.3 1.4-.6 1.3-.7.9-.8.6-.9.2a1.9 1.9 0 0 1-1.2-.4 1.6 1.6 0 0 1-.3-1.1v-.6c0-.2.1-.5.1-.8v-.4c.2-.7.4-1.4.6-1.9l1-1.4a4.7 4.7 0 0 1 1-1 1.6 1.6 0 0 1 .9-.3 1.2 1.2 0 0 1 1 .5 6.3 6.3 0 0 1 .2 1.6 7.1 7.1 0 0 1 0 1.4zm12.8-8.5v.4c.3.1.6.1.7.3a.6.6 0 0 1 .3.6 2 2 0 0 1-.1.7c0 .3-.1.6-.1.9l-.7 3h-5.3l.6-3 .4-1.4a1.4 1.4 0 0 0 .2-.6l.3-.3.6-.2v-.4h-4v.4c.4.1.6.1.8.3a.8.8 0 0 1 .2.6 2 2 0 0 1-.1.7c0 .3-.1.6-.1.9l-1.8 7.6a5.8 5.8 0 0 0-.3 1.4l-.3.5-.3.4a.8.8 0 0 1-.6.2v.5h4v-.5a1.5 1.5 0 0 1-.8-.2 1.4 1.4 0 0 1-.2-.7.6.6 0 0 1 .1-.4v-.5a1.3 1.3 0 0 0 .1-.6l.9-3.7h5.3l-.8 3.6-.4 1.4a.8.8 0 0 1-.2.5l-.3.4a.8.8 0 0 1-.6.2v.5h4v-.5l-.8-.2a1.2 1.2 0 0 1-.2-.7 1.8 1.8 0 0 1 .1-.6 3.4 3.4 0 0 1 .1-.9l1.7-7.7a8.1 8.1 0 0 1 .3-1.1 2.5 2.5 0 0 0 .2-.7l.2-.3.3-.2.5-.2v-.4z"></path>
</svg>
